<svg xmlns="http://www.w3.org/2000/svg" xmlns:xlink="http://www.w3.org/1999/xlink" width="1300" height="650" viewBox="0 0 1300 650"><defs><clipPath id="a"><rect width="1300" height="650" transform="translate(-2007 1311)"/></clipPath></defs><g transform="translate(2007 -1311)"><rect width="1300" height="650" rx="16" transform="translate(-2007 1311)" fill="#11111b"/><g clip-path="url(#a)"><path d="M917.244-3718.827c-4.9-1.143-10.6-2.265-17.241-3.342-62.712-10.176-253.673-16.876-480.637-52.5-151.993-23.855-253.8-74.182-304.479-104.832v-318.537c57.238,52.137,172.683,148.658,295.417,201.67,173.785,75.062,336.22,130.237,566.8,164.2,158.231,23.3,259.008,80.034,306.675,113.344Zm371.7-289.854c-.933-83.836,86.023-159.025,125.488-188.8v405.745c-21.342-19.693-124.412-119.778-125.488-216.953Zm-479.374,58.073c-184.77-51.672-368.476-128.448-330.9-177.771s153.324,30.411,330.9,54.849,419.346,57.687,391.949,113.279c-14.676,29.781-73.091,45.25-152.57,45.251-68.884,0-153.591-11.62-239.382-35.607Zm92.562-179.533c-272.5-27.712-451.758-241.917-536.954-319.687H602.049c34.722,38.884,147.959,150.8,320.461,175.906,201.853,29.375,383.067-35,491.923-165v63.894c-59.142,69.018-234.306,247.2-466.415,247.217a452.394,452.394,0,0,1-45.892-2.333Zm-504.819-52.9c-44.761-.005-135.888-55.4-214.781-102.52-24.279-14.5-47.422-27.877-67.65-39.363v-124.907H170.1C307.1-4393.418,472.464-4221.2,413.8-4186.79c-4.379,2.572-9.926,3.753-16.471,3.753Z" transform="translate(-2121.887 5719.827)" fill="#3a434c"/></g></g></svg>