<svg xmlns="http://www.w3.org/2000/svg" xmlns:xlink="http://www.w3.org/1999/xlink" width="1300" height="650" viewBox="0 0 1300 650"><defs><clipPath id="a"><rect width="1300" height="650" transform="translate(-2001 2061)" fill="#11111b" opacity="0.15"/></clipPath></defs><g transform="translate(2001 -2061)"><rect width="1300" height="650" rx="16" transform="translate(-2001 2061)" fill="#11111b"/><g clip-path="url(#a)"><g transform="translate(-2001.338 2020.184)"><path d="M288.161-3710.091h348.7L306.686-3562.9l-18.527,8.255Z" transform="translate(-287.822 3710.427)" fill="#3a434c"/><path d="M788.963-3205.97a42.406,42.406,0,0,1,16.127-12.555l31.346-13.958a42.556,42.556,0,0,0,21.5-56.175,42.543,42.543,0,0,0-56.148-21.55l-149.781,66.767a42.525,42.525,0,0,1-56.148-21.51,42.557,42.557,0,0,1,21.524-56.182l131.452-58.6,354.721-158.114a42.543,42.543,0,0,1,56.169,21.532,42.533,42.533,0,0,1-21.531,56.154l-74.107,33.022a42.552,42.552,0,0,0-21.537,56.181,42.543,42.543,0,0,0,56.175,21.552l164.946-73.534a42.476,42.476,0,0,1,36.662.965v75.76q-.994.508-2.026.967L985.881-3205.97Z" transform="translate(0 3937.263)" fill="#3a434c"/><path d="M495.42-3553.752a39.766,39.766,0,0,1,20.14-52.5l69.315-30.9a39.78,39.78,0,0,0,20.133-52.535,39.788,39.788,0,0,0-52.528-20.147L398.2-3641.062a39.781,39.781,0,0,1-52.522-20.14,39.781,39.781,0,0,1,20.136-52.52l438.437-195.441,18.878-8.41h86.952a40.246,40.246,0,0,1,2,3.9,39.77,39.77,0,0,1-20.14,52.521l-29.308,13.058a39.792,39.792,0,0,0-20.12,52.536A39.788,39.788,0,0,0,895.03-3775.4l140.069-62.439a39.779,39.779,0,0,1,52.521,20.127,39.786,39.786,0,0,1-20.12,52.529l-122.955,54.8-396.6,176.778a39.612,39.612,0,0,1-16.164,3.454,39.8,39.8,0,0,1-36.365-23.6Z" transform="translate(0 3917.909)" fill="#3a434c"/><path d="M237.608-3205.97v-7.195a38.572,38.572,0,0,0,16.563-49.453,38.41,38.41,0,0,0-16.563-18.053v-101.236L620.37-3552.521A38.569,38.569,0,0,1,671.3-3533a38.563,38.563,0,0,1-19.526,50.921l-76.383,34.043.014.028a38.549,38.549,0,0,0-19.533,50.919,38.569,38.569,0,0,0,50.933,19.52l206.835-92.208a38.582,38.582,0,0,1,50.933,19.547,38.566,38.566,0,0,1-19.526,50.92L624.18-3300.859a38.56,38.56,0,0,0-19.51,50.928A38.562,38.562,0,0,0,655.59-3230.4l39.981-17.829a38.585,38.585,0,0,1,50.926,19.527,38.39,38.39,0,0,1,2.7,22.74Z" transform="translate(-237.27 3937.263)" fill="#3a434c"/><g transform="translate(40.258 354.716)"><path d="M150.97,69.694A39.883,39.883,0,1,0,118.5-3.165l.007.014L9.281,45.524A39.893,39.893,0,1,0,41.762,118.4L150.99,69.722Z" transform="translate(14.368 6.633)" fill="#3a434c"/></g><path d="M1225.172-3699.923a39.878,39.878,0,0,1,20.181-52.666l54.985-24.5v87.35l-22.5,10.026a39.687,39.687,0,0,1-16.2,3.464,39.914,39.914,0,0,1-36.46-23.672Z" transform="translate(0 3937.263)" fill="#3a434c"/><path d="M66.586-3487.418a39.775,39.775,0,0,1,20.02,20.12,39.863,39.863,0,0,1-20.02,52.569Z" transform="translate(-66.248 3937.263)" fill="#3a434c"/><g transform="translate(1176.849 38.482)"><path d="M60.64,69.686A39.88,39.88,0,1,0,28.156-3.16h.007L17.878,1.433A39.893,39.893,0,1,0,50.362,74.307L60.647,69.72Z" transform="translate(5.771 6.632)" fill="#3a434c"/></g><g transform="translate(101.664 105.812)"><path d="M118.8,3.162a39.885,39.885,0,1,1,32.477,72.86l-.007-.014L44.817,123.451A39.889,39.889,0,1,1,12.333,50.585L118.787,3.141Z" transform="translate(11.307 0.301)" fill="#3a434c"/></g><path d="M160.652-3581.263l264.767-118.023a11.449,11.449,0,0,1,15.118,5.793,11.456,11.456,0,0,1-5.794,15.131L160.652-3556.195Z" transform="translate(-160.313 3937.263)" fill="#3a434c"/><g transform="translate(704.298 260.94)"><path d="M396.965,20A11.447,11.447,0,1,0,387.647-.914L-30.977,185.681a11.452,11.452,0,0,0-6.041,6.362,11.452,11.452,0,0,0,.233,8.77,11.449,11.449,0,0,0,15.124,5.8L396.965,20.005Z" transform="translate(37.781 1.904)" fill="#3a434c"/></g><path d="M434.268-3798.151a11.448,11.448,0,0,1,5.793-15.124l176.879-79.317h55.972L449.385-3792.35a11.39,11.39,0,0,1-4.65.994,11.458,11.458,0,0,1-10.467-6.8Z" transform="translate(0 3892.932)" fill="#3a434c"/></g></g></g></svg>