<svg xmlns="http://www.w3.org/2000/svg" xmlns:xlink="http://www.w3.org/1999/xlink" width="1300" height="650" viewBox="0 0 1300 650"><defs><clipPath id="a"><rect width="1300" height="650" transform="translate(-2001 2811)" fill="#11111b" opacity="0.15"/></clipPath></defs><g transform="translate(2001 -2811)"><rect width="1300" height="650" rx="16" transform="translate(-2001 2811)" fill="#11111b"/><g clip-path="url(#a)"><g transform="translate(-2001.5 2767.439)"><path d="M365.765-6356.565H308.941a382.006,382.006,0,0,1-41.5-32.947c-7.424-6.816-14.441-13.878-20.857-20.983a270.331,270.331,0,0,1-19.3-23.916,227.55,227.55,0,0,1-16.531-26.8,195.312,195.312,0,0,1-12.541-29.625c-1.709-5.23-3.187-10.565-4.393-15.856-1.244-5.46-2.232-11.026-2.938-16.545-.727-5.684-1.175-11.479-1.331-17.225a177.119,177.119,0,0,1,.428-17.9c1.082-14.524,2.774-29.818,5.028-45.456,2.12-14.706,4.8-30.141,7.96-45.875,2.948-14.67,6.407-30.041,10.276-45.685,3.565-14.411,7.595-29.513,11.977-44.879,16.83-59.035,36.661-114.6,52.6-159.248l0-.013c7.6-21.294,14.163-39.683,19.379-55.5a683.36,683.36,0,0,0,19.9-75.7c4.132-20.064,7.6-40.683,10.292-61.28h45.666v8.022c-4.752,18.124-11.708,47.289-20.675,86.686-3.666,16.11-8.315,33.875-14.207,54.323-5.258,18.239-11.017,36.927-16.585,55v.01l0,.016c-5.887,19.106-11.973,38.863-17.542,58.309-6.252,21.832-11.152,40.882-14.982,58.242a535.443,535.443,0,0,0-9.742,57.722c-1.061,9.754-1.757,19.353-2.071,28.528-.329,9.632-.247,19.132.242,28.235,4.833,89.874,46.747,123.026,71.79,142.837,5.584,4.417,10.407,8.231,13.613,11.786,5.464,6.059,8.033,26.469,7.634,60.668-.341,29.076-2.773,62.3-4.758,85.051Z" transform="translate(935.415 7092.5)" fill="#3a434c"/><path d="M379.892-6356.563H248.55a129.078,129.078,0,0,1-8.465-16.74,95.689,95.689,0,0,1-5.96-22.783,138.065,138.065,0,0,1-1.227-15.131c-.163-5.706-.035-11.9.382-18.417.44-6.9,1.219-14.4,2.317-22.288,1.151-8.294,2.69-17.3,4.573-26.754a458.167,458.167,0,0,1,11.325-45.408,388.279,388.279,0,0,1,13.981-38.271c10.229-24.065,22.332-46.232,36.347-71.9l0-.008c15.593-28.559,33.268-60.925,53.674-105.374q2.257-4.917,4.446-9.679c54.625-118.925,77.235-168.148,86.221-261.719,3.067-31.932-2.009-59.17-15.078-80.959h96.724c2.176,17.2-.733,41.764-8.646,73.007-6.686,26.4-13.549,50.865-20.98,74.8-7.494,24.133-15.648,47.99-24.928,72.93-9.02,24.244-19.239,49.869-31.241,78.339-11.11,26.361-24.169,56.131-39.917,91.016-54.6,120.953-54.517,133.847-54.05,205.406v.006c.048,7.338.1,14.926.1,23.439,0,52.869,17.263,92.53,31.745,116.493Z" transform="translate(676.662 7093.18)" fill="#3a434c"/><path d="M672.439-6356.566H544.323c51.842-77.313,146.5-219.314,197.989-301.7,9.559-15.294,17.776-29.053,25.118-42.062,8.117-14.381,15.028-27.592,21.129-40.393,13.344-27.99,22.437-53.359,27.8-77.556,1.416-6.389,2.59-12.794,3.482-19.04.911-6.362,1.564-12.759,1.938-19.012.381-6.358.488-12.763.317-19.039-.174-6.371-.639-12.8-1.382-19.122-.754-6.4-1.817-12.882-3.16-19.259-1.36-6.455-3.047-13-5.016-19.453-1.991-6.525-4.329-13.154-6.952-19.7-2.647-6.611-5.661-13.344-8.961-20.007-30.762-62.118-104.1-99.048-160.2-119.09H860.5a186.551,186.551,0,0,1,23.747,26.114,178.8,178.8,0,0,1,11.125,16.768,175.761,175.761,0,0,1,9.77,19.37,177.6,177.6,0,0,1,7.77,22.077,186.662,186.662,0,0,1,5.134,24.877,205.68,205.68,0,0,1,1.854,27.784,237.6,237.6,0,0,1-2.069,30.788,430.326,430.326,0,0,1-7.913,42.791c-3.238,13.693-7.256,27.88-11.943,42.168-4.4,13.4-9.521,27.315-15.232,41.357-5.3,13.018-11.277,26.6-17.78,40.358-11.2,23.7-24.36,48.877-40.239,76.979-13.962,24.708-27.98,48.112-41.537,70.745-12.933,21.592-25.151,41.986-35.755,60.951C701.093-6466.022,676.564-6403.118,672.439-6356.566Z" transform="translate(112.518 7093.182)" fill="#3a434c"/><path d="M669.349-6356.565H558.911c38.923-42.814,112.823-128.24,170.435-219.326,32.166-50.854,54.969-96.793,67.777-136.542,15.256-47.347,16.5-86.535,3.695-116.477-48.888-114.326-145.238-153.6-230.246-188.245-31.421-12.806-61.1-24.9-87.117-40.01-22.546-13.091-40.9-24.81-54.554-34.834H570.178c37.442,11.247,72.775,22.909,105.017,34.673,18.329,6.687,35.945,13.512,52.358,20.286,17.682,7.3,34.434,14.728,49.79,22.083,16.422,7.867,31.688,15.86,45.372,23.756a422.27,422.27,0,0,1,39.1,25.3c5.946,4.378,11.539,8.817,16.622,13.19,5.22,4.493,10.052,9.045,14.361,13.531a152.9,152.9,0,0,1,11.868,13.854,112.176,112.176,0,0,1,9.144,14.162,147.672,147.672,0,0,1,9.951,23,156.391,156.391,0,0,1,5.95,24.03,177.641,177.641,0,0,1,2.3,24.878,211.522,211.522,0,0,1-1.008,25.54,258.656,258.656,0,0,1-3.963,26.016c-1.729,8.508-3.94,17.359-6.569,26.309-2.515,8.559-5.485,17.449-8.825,26.412-3.183,8.543-6.794,17.4-10.732,26.333-3.734,8.466-7.87,17.236-12.29,26.066-4.166,8.321-8.707,16.94-13.5,25.616-8.705,15.764-18.267,31.837-29.224,49.136-8.91,14.064-18.68,28.819-29.864,45.105-9.747,14.193-19.289,27.68-27.7,39.58l-.008.01-.012.017c-7.7,10.887-14.972,21.17-21.069,30.1-35.777,52.427-72.985,103.138-97.9,136.447Z" transform="translate(-114.327 7093.182)" fill="#3a434c"/><path d="M349.782-6356.566H232.517c22.25-27.166,65.057-82.225,101.742-145.752,45-77.919,66.955-144.1,65.267-196.7-1.076-33.549-22.292-70.8-63.059-110.716-32.735-32.052-78.11-65.91-134.857-100.637C103.461-6970.425,4.178-7012.834,0-7014.606V-7092H169.888c31.794,14.191,62.808,29.513,92.181,45.53A995.534,995.534,0,0,1,366.3-6981.52c17.877,12.859,34.615,26.037,49.752,39.165,8.057,6.988,15.823,14.1,23.081,21.151,7.544,7.324,14.754,14.779,21.426,22.157,6.921,7.652,13.457,15.435,19.425,23.133,6.181,7.969,11.928,16.07,17.083,24.079a285.723,285.723,0,0,1,14.4,25,244.676,244.676,0,0,1,11.364,25.885,194.135,194.135,0,0,1,8.524,30.7,216.533,216.533,0,0,1,3.619,31.666,253.9,253.9,0,0,1-.787,32.338,306,306,0,0,1-4.7,32.719c-2.1,10.651-4.831,21.692-8.1,32.814-3.125,10.618-6.832,21.59-11.016,32.615-3.98,10.487-8.5,21.3-13.427,32.128-4.67,10.261-9.832,20.808-15.342,31.353C438.618-6462.39,380.563-6391.5,349.782-6356.566Z" transform="translate(0.5 7093.183)" fill="#3a434c"/><path d="M38.612,838.771v-515.3c31.694,14.56,210.084,102.387,219.421,238.84,7.206,105.323-76.675,218.529-127.114,276.464Z" transform="translate(-38.112 -102.154)" fill="#3a434c"/></g></g></g></svg>