<svg xmlns="http://www.w3.org/2000/svg" xmlns:xlink="http://www.w3.org/1999/xlink" width="1920" height="1080" viewBox="0 0 1920 1080"><defs><clipPath id="a"><rect width="1920" height="1080" fill="#11111b"/></clipPath></defs><g transform="translate(4875 -3741)"><rect width="1920" height="1080" transform="translate(-4875 3741)" fill="#11111b"/><g transform="translate(-4875 3741)" clip-path="url(#a)"><g transform="translate(0)"><path d="M449.839-6012.815H365.914a563.527,563.527,0,0,1-61.3-48.347c-10.965-10-21.328-20.365-30.8-30.791a397.145,397.145,0,0,1-28.509-35.094,333.509,333.509,0,0,1-24.415-39.324,285.56,285.56,0,0,1-18.522-43.473c-2.525-7.674-4.707-15.5-6.488-23.267-1.837-8.014-3.3-16.181-4.339-24.278a252.84,252.84,0,0,1-1.966-25.276,258.24,258.24,0,0,1,.632-26.263c1.6-21.312,4.1-43.756,7.426-66.7,3.131-21.579,7.086-44.229,11.757-67.317,4.354-21.527,9.463-44.082,15.177-67.038,5.266-21.146,11.217-43.307,17.689-65.856,24.856-86.629,54.145-168.166,77.68-233.682l.006-.019c11.224-31.246,20.917-58.23,28.621-81.446a997.541,997.541,0,0,0,29.395-111.088c6.1-29.441,11.218-59.7,15.2-89.923H460.6v11.771c-7.018,26.595-17.292,69.393-30.536,127.2-5.415,23.64-12.281,49.709-20.983,79.714-7.766,26.765-16.271,54.188-24.495,80.714v.015l-.007.023c-8.694,28.037-17.684,57.027-25.908,85.563-9.233,32.036-16.471,59.991-22.127,85.464a781.086,781.086,0,0,0-14.388,84.7c-1.566,14.313-2.6,28.4-3.058,41.862-.486,14.135-.365,28.075.357,41.434,7.138,131.882,69.042,180.53,106.029,209.6,8.247,6.481,15.371,12.079,20.1,17.3,8.069,8.89,11.863,38.84,11.275,89.024-.5,42.666-4.1,91.415-7.026,124.8Z" transform="translate(1471.165 7092)" fill="#3a434c"/><path d="M450.03-6012.814H256.048a188.935,188.935,0,0,1-12.5-24.565,139.678,139.678,0,0,1-8.8-33.433,201.288,201.288,0,0,1-1.812-22.2c-.241-8.373-.051-17.464.564-27.024.65-10.127,1.8-21.131,3.423-32.706,1.7-12.171,3.972-25.381,6.754-39.259a668.827,668.827,0,0,1,16.726-66.632,567.452,567.452,0,0,1,20.648-56.158c15.107-35.314,32.983-67.843,53.682-105.5l.006-.012c23.03-41.908,49.134-89.4,79.272-154.627q3.334-7.216,6.566-14.2c80.677-174.512,114.07-246.743,127.342-384.05,4.53-46.857-2.967-86.827-22.269-118.8H668.5c3.213,25.24-1.083,61.285-12.769,107.132-9.875,38.739-20.01,74.64-30.986,109.755-11.068,35.414-23.111,70.422-36.816,107.019-13.322,35.576-28.415,73.179-46.14,114.956-16.408,38.683-35.7,82.369-58.954,133.558-80.641,177.488-80.517,196.409-79.828,301.417v.008c.07,10.768.143,21.9.143,34.4,0,77.581,25.5,135.78,46.885,170.943Z" transform="translate(1109.681 7093)" fill="#3a434c"/><path d="M733.541-6012.816H544.323c76.566-113.45,216.368-321.824,292.415-442.718,14.118-22.443,26.254-42.632,37.1-61.722,11.988-21.1,22.2-40.489,31.206-59.274,19.707-41.072,33.138-78.3,41.06-113.806,2.092-9.376,3.825-18.775,5.143-27.94,1.346-9.336,2.309-18.723,2.863-27.9.563-9.33.721-18.728.468-27.938-.257-9.348-.943-18.789-2.042-28.06-1.114-9.4-2.684-18.9-4.667-28.26-2.008-9.472-4.5-19.077-7.408-28.545-2.94-9.576-6.393-19.3-10.268-28.911-3.909-9.7-8.361-19.58-13.234-29.357C871.523-7008.4,763.212-7062.59,680.351-7092h330.936a274.389,274.389,0,0,1,35.073,38.321,262.268,262.268,0,0,1,16.431,24.6,257.383,257.383,0,0,1,14.429,28.424,259.474,259.474,0,0,1,11.476,32.4,272.353,272.353,0,0,1,7.583,36.505,299.9,299.9,0,0,1,2.738,40.771,346.451,346.451,0,0,1-3.055,45.178,627.822,627.822,0,0,1-11.687,62.792c-4.782,20.093-10.717,40.912-17.64,61.878-6.493,19.663-14.062,40.082-22.5,60.688-7.821,19.1-16.655,39.03-26.26,59.222-16.538,34.773-35.978,71.723-59.43,112.959-20.62,36.258-41.324,70.6-61.348,103.812-19.1,31.685-37.146,61.612-52.808,89.44C775.861-6173.433,739.633-6081.127,733.541-6012.816Z" transform="translate(425.042 7093)" fill="#3a434c"/><path d="M801.318-6012.814H638.209c57.486-62.827,166.631-188.181,251.72-321.842,47.506-74.624,81.185-142.035,100.1-200.363,22.532-69.478,24.368-126.982,5.457-170.919-72.2-167.763-214.506-225.391-340.056-276.233-46.407-18.792-90.237-36.542-128.665-58.711-33.3-19.21-60.406-36.406-80.573-51.116H654.85c55.3,16.5,107.484,33.618,155.1,50.88,27.071,9.813,53.088,19.828,77.328,29.768,26.116,10.709,50.856,21.611,73.536,32.405,24.254,11.544,46.8,23.274,67.011,34.86a624.388,624.388,0,0,1,57.752,37.13c8.782,6.425,17.043,12.938,24.549,19.356,7.71,6.593,14.846,13.273,21.21,19.856a224.8,224.8,0,0,1,17.529,20.33,164.436,164.436,0,0,1,13.505,20.78,215.977,215.977,0,0,1,14.7,33.746,228.24,228.24,0,0,1,8.788,35.262,259.038,259.038,0,0,1,3.391,36.507,308.4,308.4,0,0,1-1.489,37.477,377.291,377.291,0,0,1-5.854,38.176c-2.554,12.484-5.819,25.474-9.7,38.606-3.714,12.559-8.1,25.605-13.034,38.756-4.7,12.537-10.034,25.537-15.851,38.641-5.516,12.423-11.623,25.293-18.152,38.25-6.153,12.21-12.86,24.858-19.932,37.588-12.857,23.132-26.979,46.719-43.161,72.1-13.16,20.639-27.588,42.289-44.108,66.188-14.4,20.828-28.488,40.619-40.913,58.08l-.011.015-.017.024c-11.375,15.975-22.113,31.066-31.117,44.174-52.84,76.932-107.794,151.345-144.59,200.225Z" transform="translate(17.668 7093)" fill="#3a434c"/><path d="M516.6-6012.815H343.41c32.862-39.863,96.084-120.657,150.265-213.878,66.455-114.34,98.887-211.453,96.394-288.636-1.59-49.231-32.924-103.891-93.134-162.467-48.348-47.033-115.363-96.716-199.174-147.675C152.8-6913.6,6.171-6975.831,0-6978.431V-7092H250.912c46.957,20.825,92.763,43.308,136.144,66.811,56.459,30.592,108.252,62.657,153.939,95.31,26.4,18.869,51.124,38.206,73.48,57.47,11.9,10.255,23.37,20.7,34.089,31.038,11.143,10.747,21.79,21.687,31.644,32.514,10.222,11.229,19.874,22.649,28.69,33.946,9.128,11.693,17.616,23.582,25.231,35.333A418.646,418.646,0,0,1,755.39-6702.9a357.92,357.92,0,0,1,16.784,37.984,283.411,283.411,0,0,1,12.589,45.055,315.785,315.785,0,0,1,5.345,46.467,370.2,370.2,0,0,1-1.163,47.454,446.32,446.32,0,0,1-6.935,48.012c-3.107,15.629-7.135,31.831-11.97,48.152-4.616,15.581-10.09,31.681-16.27,47.86-5.879,15.39-12.552,31.251-19.831,47.145-6.9,15.057-14.521,30.534-22.659,46.008C647.805-6168.1,562.062-6064.084,516.6-6012.815Z" transform="translate(0 7093)" fill="#3a434c"/><path d="M38.612,1079.63V323.466C85.421,344.832,348.89,473.71,362.68,673.943,373.323,828.5,249.437,994.616,174.942,1079.63Z" transform="translate(-38.612 0.555)" fill="#3a434c"/></g></g></g></svg>