<svg xmlns="http://www.w3.org/2000/svg" width="1920" height="1080" viewBox="0 0 1920 1080"><g transform="translate(4954 -2386)"><rect width="1920" height="1080" transform="translate(-4954 2386)" fill="#11111b"/><g transform="translate(-4954 2386)"><path d="M288.161-3710.091H803.17L315.522-3492.708l-27.362,12.192Z" transform="translate(-288.16 3710.091)" fill="#3a434c"/><path d="M882.82-3045.929a62.629,62.629,0,0,1,23.818-18.543l46.3-20.615a62.852,62.852,0,0,0,31.76-82.967,62.833,62.833,0,0,0-82.926-31.828l-221.216,98.609a62.807,62.807,0,0,1-82.926-31.769,62.853,62.853,0,0,1,31.79-82.977l194.144-86.544,523.9-233.521a62.832,62.832,0,0,1,82.957,31.8,62.817,62.817,0,0,1-31.8,82.935l-109.45,48.772a62.845,62.845,0,0,0-31.809,82.975,62.832,62.832,0,0,0,82.966,31.83l243.612-108.6a62.736,62.736,0,0,1,54.147,1.425v111.892q-1.469.749-2.992,1.427l-461.437,205.7Z" transform="translate(281.919 4125.497)" fill="#3a434c"/><path d="M568.482-3380.238a58.731,58.731,0,0,1,29.745-77.541l102.374-45.64a58.753,58.753,0,0,0,29.735-77.59,58.764,58.764,0,0,0-77.58-29.756L424.9-3509.187a58.753,58.753,0,0,1-77.57-29.746,58.754,58.754,0,0,1,29.739-77.568l647.538-288.65,27.881-12.42h128.422a59.454,59.454,0,0,1,2.953,5.767,58.738,58.738,0,0,1-29.746,77.57l-43.286,19.286a58.77,58.77,0,0,0-29.715,77.591,58.764,58.764,0,0,0,77.561,29.756l206.871-92.218a58.75,58.75,0,0,1,77.569,29.726,58.761,58.761,0,0,1-29.715,77.582L1231.8-3611.57,646.062-3350.483a58.5,58.5,0,0,1-23.872,5.1,58.777,58.777,0,0,1-53.708-34.857Z" transform="translate(162.717 3917.573)" fill="#3a434c"/><path d="M237.608-3039.094v-10.626a56.967,56.967,0,0,0,24.462-73.039,56.728,56.728,0,0,0-24.462-26.663v-149.518l565.31-251.984a56.963,56.963,0,0,1,75.214,28.83,56.954,56.954,0,0,1-28.839,75.206l-112.812,50.28.02.041a56.934,56.934,0,0,0-28.849,75.2,56.964,56.964,0,0,0,75.224,28.829l305.479-136.185a56.983,56.983,0,0,1,75.224,28.87,56.959,56.959,0,0,1-28.839,75.2l-326.2,145.406a56.95,56.95,0,0,0-28.815,75.216,56.954,56.954,0,0,0,75.2,28.839l59.049-26.333a56.987,56.987,0,0,1,75.214,28.839,56.7,56.7,0,0,1,3.983,33.586Z" transform="translate(-237.607 4118.662)" fill="#3a434c"/><g transform="translate(58.939 523.398)"><path d="M229.829,106.094A58.9,58.9,0,1,0,181.873-1.513l.01.02L20.566,70.4A58.919,58.919,0,1,0,68.538,178.028l161.321-71.893Z" transform="translate(14.382 6.629)" fill="#3a434c"/></g><path d="M1226.826-3663.119a58.9,58.9,0,0,1,29.806-77.783l81.209-36.19v129.009l-33.233,14.808a58.615,58.615,0,0,1-23.933,5.116,58.95,58.95,0,0,1-53.849-34.961Z" transform="translate(582.159 4013.156)" fill="#3a434c"/><path d="M66.586-3487.418A58.746,58.746,0,0,1,96.154-3457.7a58.875,58.875,0,0,1-29.568,77.641Z" transform="translate(-66.586 4151.309)" fill="#3a434c"/><g transform="translate(1737.599 56.345)"><path d="M92.319,106.081A58.9,58.9,0,1,0,44.343-1.507h.01L29.163,5.278A58.919,58.919,0,1,0,77.139,112.906l15.19-6.775Z" transform="translate(5.783 6.627)" fill="#3a434c"/></g><g transform="translate(149.624 155.776)"><path d="M180.86,4.814a58.907,58.907,0,0,1,47.966,107.608l-.01-.02L71.591,182.473A58.914,58.914,0,1,1,23.616,74.855L180.84,4.784Z" transform="translate(11.324 0.304)" fill="#3a434c"/></g><path d="M160.652-3524.5l391.041-174.311a16.909,16.909,0,0,1,22.328,8.555,16.919,16.919,0,0,1-8.558,22.347L160.652-3487.477Z" transform="translate(-160.651 4049.789)" fill="#3a434c"/><g transform="translate(1039.698 384.885)"><path d="M604.3,30.446A16.907,16.907,0,1,0,590.542-.44L-27.733,275.146a16.914,16.914,0,0,0-8.922,9.4,16.914,16.914,0,0,0,.344,12.952,16.909,16.909,0,0,0,22.337,8.566L604.3,30.456Z" transform="translate(37.778 1.908)" fill="#3a434c"/></g><path d="M434.744-3753.11a16.908,16.908,0,0,1,8.557-22.336l261.236-117.145H787.2L457.07-3744.543a16.83,16.83,0,0,1-6.868,1.469,16.923,16.923,0,0,1-15.459-10.037Z" transform="translate(206.138 3892.598)" fill="#3a434c"/></g></g></svg>