<svg xmlns="http://www.w3.org/2000/svg" width="1920" height="1080" viewBox="0 0 1920 1080"><g transform="translate(4954 -1270)"><rect width="1920" height="1079.981" transform="translate(-4954 1270)" fill="#20252a"/><path d="M1299.715-3369.827c-7.229-1.689-15.658-3.347-25.459-4.938-92.606-15.034-374.595-24.933-709.75-77.564-224.446-35.244-374.789-109.6-449.62-154.881v-470.616c84.523,77.028,255,219.632,436.238,297.953,256.625,110.9,496.491,192.415,836.992,242.587,233.657,34.427,382.474,118.246,452.862,167.458Zm548.891-428.238c-1.377-123.863,127.029-234.948,185.306-278.936v599.459c-31.515-29.094-183.717-176.963-185.306-320.532Zm-707.885,85.8C867.875-3788.607,596.6-3902.039,652.09-3974.91s226.411,44.93,488.632,81.035,619.242,85.229,578.785,167.362c-21.672,44-107.932,66.853-225.3,66.855-101.72,0-226.806-17.168-353.492-52.607Zm136.685-265.247c-402.395-40.943-667.1-357.415-792.912-472.314H834.271c51.274,57.449,218.488,222.8,473.219,259.888,298.074,43.4,565.669-51.714,726.415-243.774v94.4c-87.334,101.969-346,365.224-688.749,365.245a667.728,667.728,0,0,1-67.768-3.446Zm-745.458-78.151c-66.1-.008-200.664-81.846-317.163-151.466-35.852-21.424-70.027-41.186-99.9-58.156v-184.542h81.538c202.3,83.34,446.49,337.778,359.855,388.619-6.466,3.8-14.657,5.545-24.323,5.545Z" transform="translate(-5068.887 5719.827)" fill="#3a434c"/></g></svg>