<svg xmlns="http://www.w3.org/2000/svg" width="76" height="76" viewBox="0 0 76 76">
  <g id="favicon__prodwave" transform="translate(-23557 -15346)">
    <circle id="Ellipse_90" data-name="Ellipse 90" cx="38" cy="38" r="38" transform="translate(23557 15346)"/>
    <g id="logo__prodwave--black" transform="translate(23573.547 15380.501)">
      <path id="Path_534" data-name="Path 534" d="M401.531,409.92c-2.768,0-3.736-3.438-4.761-7.078-.437-1.553-1.347-4.783-2.053-5.022-.687.238-1.6,3.469-2.034,5.022-1.025,3.64-1.993,7.078-4.761,7.078s-3.737-3.44-4.764-7.081c-.437-1.55-1.346-4.776-2.051-5.018-.683.243-1.592,3.468-2.028,5.018-.98,3.481-1.994,7.081-4.762,7.081s-3.736-3.438-4.761-7.078c-.437-1.553-1.347-4.783-2.053-5.022-.687.238-1.6,3.469-2.034,5.022-1.025,3.64-1.993,7.078-4.761,7.078s-3.733-3.435-4.755-7.072c-.438-1.557-1.349-4.8-2.056-5.027A1.411,1.411,0,1,1,353.9,395c2.774,0,3.786,3.6,4.766,7.084.436,1.55,1.343,4.776,2.048,5.015.687-.238,1.6-3.469,2.034-5.022,1.025-3.64,1.993-7.078,4.761-7.078s3.736,3.438,4.76,7.078c.437,1.553,1.347,4.783,2.053,5.022.688-.238,1.6-3.472,2.036-5.025,1.024-3.638,1.992-7.074,4.756-7.074s3.732,3.436,4.757,7.073c.438,1.554,1.349,4.788,2.056,5.026.687-.238,1.6-3.469,2.034-5.021,1.025-3.64,1.993-7.078,4.761-7.078s3.736,3.438,4.76,7.078c.437,1.553,1.347,4.783,2.053,5.022a1.411,1.411,0,1,1-.009,2.821Z" transform="translate(-356 -398.5)" fill="#fff"/>
    </g>
  </g>
</svg>
