<svg xmlns="http://www.w3.org/2000/svg" width="90.146" height="11.739" viewBox="0 0 90.146 11.739"><path d="M53.567.778a4.149,4.149,0,0,0-3.891,3.938V.97H47V12.264h2.707V6.8a3.705,3.705,0,0,1,3.858-3.692ZM81.98,10.456V2.718h1.568a3.538,3.538,0,0,1,3.789,3.807,3.638,3.638,0,0,1-3.789,3.931ZM79.3,12.266h4.573c2.809,0,6.271-1.747,6.271-5.741,0-3.931-3.462-5.554-6.271-5.554H79.3v11.3ZM69.03,6.651c0-2.06,1.11-3.744,2.94-3.744,1.764,0,2.744,1.685,2.744,3.744s-.98,3.745-2.744,3.745c-1.829,0-2.94-1.685-2.94-3.744Zm-2.744.125c0,3.37,1.829,5.741,4.7,5.741,2.091,0,3.332-1.31,3.985-3.432v3.183h2.678V.972H74.975V3.967c-.588-2-1.829-3.182-3.789-3.182-2.94,0-4.9,2.559-4.9,5.99ZM5.292,12.517C1.96,12.517,0,9.958,0,6.775,0,3.468,2.156.785,6.272.785c4.246,0,5.683,2.746,5.749,4.306H8.95A2.533,2.533,0,0,0,6.206,2.906,3.444,3.444,0,0,0,2.874,6.65a3.445,3.445,0,0,0,3.332,3.745c1.829,0,2.613-1.373,2.94-2.746H6.206V6.526h6.168v5.742H9.669V8.648a4.2,4.2,0,0,1-4.377,3.869Zm12.57,0c-2.548,0-4.116-1.622-4.116-4.867V.971H16.49V7.649c0,1.685.849,2.5,2.286,2.5,2.809,0,3.854-3.307,3.854-5.617V.971h2.743v11.3H22.7V8.085c-.523,2.309-1.96,4.431-4.835,4.431ZM41.766.778c-2.341,0-3.818,2.16-4.3,4.157C37.384,2.259,36.006.778,33.8.778c-1.905,0-3.672,1.623-4.131,4.19v-4H27v11.3h2.709V8.216c0-1,.438-5.124,3.165-5.124,1.767,0,1.951,1.522,1.951,3.6v5.57h2.708V8.216c0-1,.456-5.124,3.183-5.124,1.765,0,1.948,1.522,1.948,3.6v5.57h2.711V5.585C45.384,2.38,44.2.779,41.766.779Zm17.612,0A5.717,5.717,0,0,0,53.5,6.647a5.478,5.478,0,0,0,5.884,5.868A5.752,5.752,0,0,0,65.3,6.647C65.3,3.075,63,.778,59.379.778Zm0,9.738c-2.042,0-3.365-1.651-3.365-3.869s1.327-3.87,3.365-3.87,3.311,1.651,3.311,3.87-1.275,3.869-3.311,3.869Z" transform="translate(0 -0.778)" fill="#fff"/></svg>