<svg xmlns="http://www.w3.org/2000/svg" width="512" height="511.9" viewBox="0 0 512 511.9"><path d="M400,192H32A31.934,31.934,0,0,0,0,224V416a96.025,96.025,0,0,0,96,96H288a96.025,96.025,0,0,0,96-96h16a112,112,0,0,0,0-224Zm0,160H384V256h16a48,48,0,0,1,0,96ZM107.9,100.7c12.4,6.4,20.1,20.7,20.1,35.3a23.913,23.913,0,0,0,24,23.89c13.25,0,24-11.79,24-24.19a88.849,88.849,0,0,0-43.91-76.45A40.607,40.607,0,0,1,112,24.28a24,24,0,1,0-48,0A88.763,88.763,0,0,0,107.9,100.7Zm112,0c12.4,6.4,20.1,20.7,20.1,35.3a23.887,23.887,0,0,0,24,23.86c13.25,0,24-11.76,24-24.16a88.849,88.849,0,0,0-43.91-76.45A40.607,40.607,0,0,1,224,24.28a24,24,0,1,0-48,0A88.7,88.7,0,0,0,219.9,100.7Z" transform="translate(0 -0.1)"/></svg>